<svg width="102" height="103" viewBox="0 0 102 103" fill="none" xmlns="http://www.w3.org/2000/svg">
<circle cx="51" cy="51.2695" r="51" fill="#FCFCFC"/>
<path d="M37.1343 28.5419C36.1601 28.8417 35.8354 29.2163 34.4116 31.6892C33.0752 33.9873 33.0503 34.0497 33.0128 34.924C32.9753 35.6359 33.0128 35.9106 33.2251 36.3103C33.6248 37.0971 34.3616 37.6592 35.3358 37.909C36.1226 38.0963 37.7463 38.7832 38.3208 39.1579L38.5955 39.3452L38.1459 39.9947C37.5215 40.9189 36.5098 43.0671 36.3849 43.729C36.335 44.0287 36.335 44.5033 36.3974 44.7781C36.5348 45.465 36.5348 45.4775 36.3724 47.0637C36.0352 50.1485 36.7971 53.4208 38.4956 56.1559C39.4198 57.6671 41.3182 59.578 42.8419 60.5647C43.4914 60.9768 44.0784 61.339 44.1533 61.364C44.2158 61.389 44.1658 61.5763 44.0159 61.7762C42.8419 63.4372 42.2424 66.3223 42.8294 67.4463C42.9668 67.6836 43.2416 67.9959 43.4539 68.1332C43.7287 68.3081 43.8411 68.4829 43.8536 68.7327C43.8536 69.5196 44.6029 70.4438 45.3898 70.6311C45.6895 70.7061 45.727 70.781 45.727 71.2181C45.727 72.567 46.6137 73.7535 47.8876 74.1281C48.7494 74.3779 49.4113 74.303 50.2231 73.8534L50.7977 73.5536L51.4096 73.9033C52.209 74.3405 53.383 74.3779 54.1698 73.9658C55.1939 73.4412 55.8434 72.3671 55.8434 71.2181C55.8434 70.781 55.8808 70.7061 56.1806 70.6311C56.9674 70.4438 57.7168 69.5196 57.7168 68.7327C57.7293 68.4829 57.8417 68.3081 58.1164 68.1332C58.3288 67.9959 58.6035 67.6836 58.7409 67.4463C59.3279 66.3223 58.7284 63.4372 57.5544 61.7762C57.3796 61.5389 57.3421 61.389 57.4295 61.364C57.8167 61.2266 59.0906 60.3149 59.2155 60.0776C59.3779 59.7654 59.2904 59.2408 59.0032 58.9161C58.666 58.5539 58.0165 58.6538 56.9799 59.2408C54.9192 60.4273 53.1831 60.8769 50.7227 60.8769C48.8493 60.8769 47.5629 60.6146 45.9643 59.9402C41.3807 57.9919 38.3707 53.5457 38.3208 48.6498C38.3083 47.8255 38.3458 46.9513 38.3957 46.7015L38.4831 46.2519L41.8927 46.1769C45.4522 46.1145 46.5638 45.9896 48.5371 45.4151C51.0849 44.6782 52.9958 43.6915 55.1939 41.993L56.2305 41.1937L58.3163 43.2419C60.5144 45.4026 61.1389 45.8397 62.3753 46.077C62.7 46.1395 62.9998 46.2144 63.0497 46.2519C63.0872 46.2893 63.1621 46.7889 63.2371 47.3634C63.5493 50.1236 62.5627 53.5207 60.7767 55.8937C60.4644 56.3058 60.1772 56.7679 60.1397 56.9178C59.9399 57.7046 60.6143 58.3416 61.3887 58.0793C62.0506 57.867 63.5368 55.6564 64.2612 53.7954C65.098 51.6722 65.4477 49.2118 65.1979 47.0762C65.0231 45.5524 65.0231 45.4525 65.1854 44.7406C65.2604 44.4034 65.2604 44.0038 65.1854 43.679C65.0356 42.9796 63.949 40.7066 63.3994 39.9572L62.9623 39.3452L63.2496 39.1704C63.7991 38.8082 65.4102 38.1213 66.2345 37.909C67.2087 37.6467 67.9581 37.0971 68.3452 36.3103C68.5576 35.9106 68.595 35.6359 68.5576 34.924C68.5201 34.0497 68.4951 33.9873 67.1587 31.6892C65.6725 29.1039 65.3478 28.7542 64.2113 28.4795C63.387 28.2796 62.6126 28.467 61.6759 29.0914C59.9649 30.2155 58.3912 31.964 57.4795 33.7375L57.0424 34.5618L55.8933 34.1496C54.1323 33.5127 52.8085 33.3004 50.7227 33.3129C48.6994 33.3129 47.2881 33.5626 45.5271 34.1996L44.5155 34.5618L44.1408 33.7999C43.0542 31.6018 40.4315 29.029 38.7579 28.5294C38.071 28.3171 37.8337 28.3171 37.1343 28.5419ZM38.8703 30.8649C39.9569 31.5643 41.2932 32.9756 42.0051 34.1746C42.8419 35.5859 42.8419 35.486 42.0176 36.0355C41.618 36.2978 40.9935 36.7974 40.6313 37.1346L39.9694 37.7716L39.5073 37.4843C38.6205 36.9473 37.2717 36.3603 36.3599 36.1105C35.3233 35.8232 34.9861 35.5734 34.9861 35.0988C34.9861 34.6492 37.3091 30.6152 37.6588 30.4778C38.0335 30.3154 37.996 30.3029 38.8703 30.8649ZM64.1613 30.6526C64.536 31.0273 66.5842 34.7866 66.5842 35.0864C66.5842 35.5734 66.2595 35.8107 65.2479 36.098C64.3486 36.3478 62.9124 36.9722 62.0506 37.4843L61.5885 37.7716L61.1139 37.3219C60.6018 36.8349 59.9774 36.4727 59.6277 36.4727C59.5028 36.4727 59.2655 36.2604 59.1031 36.0106C58.8158 35.5734 58.8158 35.5485 59.0282 35.1238C59.7775 33.5502 61.3137 31.7642 62.7 30.8649C63.5118 30.3529 63.8241 30.3029 64.1613 30.6526ZM53.87 35.6484C56.0432 36.1979 57.5919 36.9847 57.5919 37.5592C57.6044 38.0089 57.9416 38.2587 58.666 38.3586C59.2904 38.446 59.4528 38.5334 60.0023 39.058C60.3395 39.3827 60.9515 40.0946 61.3512 40.6316C62.2754 41.8681 63.4744 44.2161 63.1746 44.2161C63.1497 44.2161 62.8249 44.1287 62.4503 44.0163C61.8383 43.8289 61.576 43.6041 59.1905 41.2561C56.1181 38.2087 56.318 38.2836 54.8068 39.6575C52.5212 41.7557 49.3114 43.3293 46.1641 43.9163C44.7028 44.1911 38.3582 44.3285 38.3582 44.0912C38.3582 43.779 39.3574 41.8181 39.9819 40.9189C40.7312 39.8323 42.3424 38.2462 43.4164 37.5343C45.1025 36.4227 47.2257 35.6109 49.1616 35.3611C50.4729 35.1738 52.5212 35.3112 53.87 35.6484ZM49.3989 62.8502C50.9475 63.0126 52.9084 62.8627 54.4446 62.4631L55.3438 62.2258L55.6685 62.6129C56.3554 63.4372 56.9674 65.0733 56.9674 66.1225V66.6345L56.5178 65.9476C55.7934 64.861 55.6061 64.6987 55.0815 64.6987C54.7193 64.6987 54.557 64.7736 54.3571 65.0234C53.9325 65.5604 54.0324 65.9101 54.9067 67.2215C55.3563 67.8959 55.7185 68.4954 55.7185 68.5704C55.7185 68.6578 54.0574 68.6953 50.7852 68.6953C47.513 68.6953 45.8519 68.6578 45.8519 68.5704C45.8519 68.4954 46.2141 67.8959 46.6637 67.2215C47.5379 65.9101 47.6378 65.5604 47.2132 65.0234C46.9884 64.7361 46.8635 64.6862 46.4264 64.7236C45.9518 64.7611 45.8644 64.8236 45.2898 65.6104C44.7278 66.3847 44.6654 66.4347 44.6279 66.1349C44.528 65.3231 45.14 63.5996 45.8519 62.7004L46.2265 62.2258L47.1383 62.4631C47.6254 62.588 48.6495 62.7628 49.3989 62.8502ZM49.7985 71.1557C49.6861 71.7926 49.0741 72.3671 48.612 72.2547C48.1249 72.1423 47.7253 71.6303 47.7253 71.1182V70.6936H48.7994H49.8734L49.7985 71.1557ZM53.8451 71.1182C53.8451 71.6303 53.4454 72.1423 52.9583 72.2547C52.4338 72.3796 51.8468 71.8051 51.8468 71.1807V70.6936H52.8459H53.8451V71.1182Z" fill="#C0304F"/>
<path d="M44.7403 49.4117C44.528 49.674 44.478 49.9238 44.478 50.6107C44.478 51.3601 44.5155 51.51 44.7903 51.7722C44.9776 51.9721 45.2399 52.0845 45.4772 52.0845C45.7145 52.0845 45.9768 51.9721 46.1641 51.7722C46.4389 51.51 46.4763 51.3601 46.4763 50.6107C46.4763 49.4992 46.2016 49.087 45.4772 49.087C45.1025 49.087 44.9401 49.162 44.7403 49.4117Z" fill="#C0304F"/>
<path d="M55.469 49.3368C55.2567 49.5491 55.2192 49.7489 55.2192 50.5732C55.2192 51.4974 55.2442 51.5848 55.544 51.8221C55.9186 52.1219 56.1934 52.1469 56.643 51.947C57.0802 51.7472 57.255 51.2227 57.1926 50.3234C57.1426 49.7114 57.0802 49.4991 56.8553 49.3243C56.4682 49.012 55.7813 49.0245 55.469 49.3368Z" fill="#C0304F"/>
<path d="M48.7246 50.3359C48.3374 50.7231 48.3874 51.46 48.8245 51.8597C49.424 52.4217 49.9735 52.634 50.8478 52.6465C52.1342 52.6465 53.2208 51.8971 53.2208 51.0229C53.2208 50.2235 52.0717 49.7489 51.5472 50.3235C51.1725 50.7356 50.7479 50.7606 50.2358 50.4109C49.6738 50.0237 49.0743 49.9862 48.7246 50.3359Z" fill="#C0304F"/>
</svg>
