<svg width="102" height="103" viewBox="0 0 102 103" fill="none" xmlns="http://www.w3.org/2000/svg">
<g id="Icon">
<circle id="Ellipse 62" cx="51" cy="51.2695" r="51" fill="#FCFCFC"/>
<g id="Group">
<path id="Vector" d="M42.9239 28.4251C42.0885 28.534 40.9082 28.9063 40.1092 29.2967C35.9599 31.3759 34.2075 36.524 36.205 40.746C36.432 41.2181 36.7952 41.8537 37.0131 42.1624C37.231 42.462 40.1909 45.4764 43.5776 48.854C50.4598 55.7181 50.0059 55.3458 51.3224 55.3277C52.3393 55.3186 52.6389 55.1279 54.4367 53.3211C55.9439 51.7866 55.9529 51.7776 55.9529 51.3781C55.9529 50.9241 55.7532 50.6245 55.3355 50.4701C54.8452 50.2795 54.6092 50.4429 53.0293 52.0046C51.5131 53.4936 51.504 53.5027 51.168 53.4482C50.8684 53.3937 50.1965 52.7582 44.8941 47.4648C41.6346 44.2053 38.7836 41.2817 38.5566 40.973C37.7031 39.8017 37.3127 38.5578 37.3127 37.0415C37.3127 35.8884 37.4852 35.1076 37.9846 34.0907C39.5554 30.8675 43.3597 29.4148 46.6465 30.7858C47.5998 31.1762 48.2172 31.6392 49.5519 32.9558C50.7504 34.1361 51.0046 34.2995 51.4768 34.1815C51.6311 34.1452 52.2122 33.6458 52.9113 32.9558C53.556 32.3202 54.3277 31.6302 54.6183 31.4304C55.3719 30.9038 56.3434 30.5315 57.3784 30.3499C59.4667 29.9958 61.6186 30.7131 63.1711 32.2748C65.4864 34.581 65.8314 38.1311 64.0065 40.8549C63.8612 41.0819 62.8806 42.1261 61.8274 43.1793C60.0115 45.0133 59.9298 45.1223 59.8844 45.5036C59.839 45.8668 59.8662 45.9485 60.1114 46.2209C60.3474 46.4842 60.4473 46.5296 60.8014 46.5296H61.2191L63.1348 44.6229C65.2504 42.5165 65.668 41.9989 66.2491 40.7551C68.6007 35.7704 65.7951 29.896 60.4382 28.5885C59.3033 28.3071 57.5055 28.3071 56.3797 28.5794C54.6909 28.9971 53.4833 29.6871 52.1214 31.0309L51.2407 31.8935L50.251 30.9492C48.8891 29.6417 47.627 28.9335 46.0109 28.5704C45.1847 28.3797 43.7319 28.3161 42.9239 28.4251Z" fill="#C0304F"/>
<path id="Vector_2" d="M30.2584 44.1778C28.8693 44.5591 28.0794 45.5125 28.0067 46.8926C27.9704 47.5826 28.034 47.8822 29.4322 53.5206C30.2403 56.762 31.003 59.7491 31.1301 60.1486C31.8837 62.4639 33.636 65.0697 35.5881 66.7948C35.9785 67.1399 37.3677 68.184 38.6842 69.1192L41.063 70.8261V71.8703C41.063 72.7328 41.0903 72.978 41.2446 73.2685C41.4625 73.6953 41.8893 74.0312 42.3796 74.1674C42.888 74.3036 59.5762 74.3036 60.0846 74.1674C60.5749 74.0312 61.0016 73.6953 61.2195 73.2685C61.3739 72.978 61.4011 72.7328 61.4011 71.8703V70.8261L63.789 69.1192C65.0965 68.184 66.4857 67.1399 66.8761 66.7948C68.8282 65.0697 70.5805 62.4639 71.3341 60.1486C71.4612 59.7491 72.2239 56.762 73.032 53.5206C74.4211 47.8913 74.4938 47.5826 74.4575 46.8926C74.4302 46.3024 74.3667 46.0663 74.1578 45.6759C73.268 44.0507 71.0708 43.5785 69.609 44.6953C68.8554 45.2764 68.6829 45.6214 67.212 49.5528L65.8319 53.2664L65.3598 53.0939C64.7424 52.8487 63.6165 52.9032 63.0718 53.1847C62.4907 53.4843 55.3451 58.0785 54.7277 58.5506C53.4929 59.4949 52.3216 60.8841 51.6316 62.2188C51.4409 62.6092 51.2593 62.9179 51.2321 62.9179C51.2048 62.9179 51.0233 62.6092 50.8326 62.2188C50.1516 60.9022 48.9531 59.4767 47.7365 58.5506C47.1009 58.0694 40.0098 53.5024 39.4197 53.1937C38.8476 52.8941 37.7309 52.8487 37.1044 53.0939L36.6322 53.2664L35.2522 49.5528C33.7904 45.6305 33.6179 45.2764 32.8552 44.6953C32.1288 44.1415 31.121 43.9326 30.2584 44.1778ZM31.6113 46.2025C31.7384 46.2842 31.9109 46.4567 32.0017 46.5839C32.3013 46.9833 35.1886 54.8553 35.1523 55.1549C35.0524 55.9357 35.1341 56.7075 35.3702 57.1978C35.4973 57.4702 35.6789 57.7789 35.7697 57.8788C35.8605 57.9786 37.0317 58.932 38.3755 59.9943C40.6181 61.7648 40.8361 61.9191 41.172 61.9191C41.626 61.9191 41.8439 61.8011 42.0164 61.4652C42.1889 61.1292 42.1889 60.7388 42.0164 60.4937C41.9438 60.3938 40.8361 59.4767 39.5558 58.4689C37.0045 56.4533 36.8683 56.2898 37.059 55.6543C37.2043 55.164 37.5311 54.9098 38.0396 54.8644C38.4754 54.828 38.4754 54.828 42.3796 57.334C44.5314 58.7231 46.4653 59.9943 46.6923 60.1759C48.2449 61.4288 49.398 63.2084 49.9791 65.2604C50.1607 65.905 50.1789 66.2137 50.2061 69.1555L50.2424 72.3606H46.6197H42.9879L42.9516 71.1439C42.9243 70.0816 42.8971 69.9 42.7428 69.7275C42.6429 69.6186 41.3536 68.6652 39.8827 67.6029C37.8126 66.1229 37.0045 65.4783 36.2963 64.7792C34.8708 63.3537 33.6905 61.5378 33.064 59.8308C32.7281 58.8957 29.8953 47.4918 29.8953 47.056C29.8953 46.6383 30.1313 46.3115 30.5762 46.1117C30.9757 45.921 31.2663 45.9483 31.6113 46.2025ZM71.9061 46.1117C72.3238 46.3024 72.5689 46.6746 72.5689 47.1014C72.5689 47.51 69.718 58.9501 69.4002 59.8308C68.7737 61.5378 67.5934 63.3537 66.1679 64.7792C65.4597 65.4783 64.6516 66.1229 62.5815 67.6029C61.1106 68.6652 59.8213 69.6186 59.7214 69.7275C59.5671 69.9 59.5398 70.0816 59.5126 71.1439L59.4763 72.3606H55.8445H52.2218L52.2581 69.1555C52.2853 66.2137 52.3035 65.905 52.4851 65.2604C53.0661 63.2084 54.2192 61.4288 55.7718 60.1759C55.9988 59.9943 57.9418 58.7231 60.0846 57.3431C64.352 54.6101 64.3247 54.6192 64.9512 55.0459C65.1419 55.1731 65.3053 55.391 65.387 55.6089C65.614 56.2808 65.5051 56.417 62.9083 58.4689C61.6281 59.4767 60.5204 60.3938 60.4478 60.4937C60.2753 60.7388 60.2753 61.1292 60.4478 61.4652C60.6203 61.8011 60.8382 61.9191 61.2922 61.9191C61.6281 61.9191 61.846 61.7648 64.0887 59.9943C65.4324 58.932 66.6037 57.9786 66.6945 57.8788C66.7853 57.7789 66.9669 57.4702 67.1031 57.1978C67.3391 56.7075 67.4118 55.9721 67.3119 55.1549C67.2847 54.9642 67.7205 53.6931 68.7555 50.9329C69.5636 48.7629 70.2809 46.8835 70.3444 46.7564C70.4988 46.4658 70.8257 46.1571 71.1162 46.0391C71.434 45.912 71.4703 45.921 71.9061 46.1117Z" fill="#C0304F"/>
<path id="Vector_3" d="M57.4334 47.6827C57.2245 47.7826 56.9521 48.2638 56.9521 48.5271C56.9521 48.7904 57.2245 49.199 57.4969 49.3442C57.8329 49.5168 57.9872 49.5168 58.3595 49.3442C59.2129 48.9357 58.9224 47.5647 57.9781 47.5828C57.7875 47.5828 57.5423 47.6282 57.4334 47.6827Z" fill="#C0304F"/>
</g>
</g>
</svg>
