<svg width="102" height="103" viewBox="0 0 102 103" fill="none" xmlns="http://www.w3.org/2000/svg">
<circle cx="51" cy="51.2695" r="51" fill="#FCFCFC"/>
<path d="M48.7485 25.6425C42.2861 26.8691 37.9056 33.0326 38.8745 39.5157C39.1115 41.0411 39.6475 42.6077 40.369 43.8239C40.5442 44.1228 40.6885 44.3908 40.6885 44.4114C40.6885 44.4424 38.6683 44.463 36.205 44.463C33.1438 44.463 31.6493 44.5042 31.4844 44.5763C31.3401 44.6382 31.1752 44.8031 31.1134 44.9474C31.0412 45.1123 31 46.4419 31 49.0599V52.9249L31.2577 53.1723C31.4844 53.4094 31.5875 53.43 32.4842 53.43H33.4634L33.4943 55.8109C33.5252 58.1712 33.5252 58.1918 33.7726 58.3876C34.0921 58.6453 34.6486 58.6453 34.9166 58.3773C35.1125 58.1815 35.1228 58.0372 35.1228 55.8006V53.43H50.9954H66.868V55.8006C66.868 58.0372 66.8784 58.1815 67.0742 58.3773C67.3422 58.6453 67.8987 58.6453 68.2183 58.3876C68.4656 58.1918 68.4656 58.1712 68.4965 55.8109L68.5275 53.43H69.5066C70.4033 53.43 70.5064 53.4094 70.7331 53.1723L70.9908 52.9249V49.0599C70.9908 46.4419 70.9496 45.1123 70.8774 44.9474C70.8156 44.8031 70.6507 44.6382 70.5064 44.5763C70.3415 44.5042 68.847 44.463 65.7858 44.463C63.3225 44.463 61.3023 44.4424 61.3023 44.4217C61.3023 44.3908 61.4672 44.0919 61.6631 43.7518C63.8893 39.9588 63.7347 34.8054 61.2714 31.0228C60.0758 29.1984 58.3236 27.6627 56.3138 26.6835C54.5513 25.8281 53.5 25.5807 51.3046 25.5395C50.0575 25.5189 49.2638 25.5498 48.7485 25.6425ZM53.0053 27.3123C54.8811 27.673 56.7054 28.6006 58.1278 29.9199C59.1482 30.8682 59.8078 31.7339 60.4056 32.8986C61.2714 34.5993 61.56 35.8258 61.5497 37.815C61.5394 39.0209 61.4878 39.4229 61.2611 40.2887C60.9622 41.443 60.1789 43.1128 59.5811 43.8961L59.1791 44.4114L57.664 44.4424L56.1489 44.4733L56.9013 43.7209C58.6741 41.9584 59.5398 39.7321 59.4058 37.2997C59.2719 34.6817 58.1175 32.507 56.0561 30.9403C54.5925 29.8375 52.9743 29.3118 50.9954 29.3118C49.0165 29.3118 47.3983 29.8375 45.9347 30.9403C43.8733 32.507 42.719 34.6817 42.585 37.2997C42.451 39.7321 43.3168 41.9584 45.0895 43.7209L45.8419 44.4733L44.3268 44.4424L42.8117 44.4114L42.4097 43.8961C41.8119 43.1128 41.0286 41.443 40.7297 40.2887C40.503 39.4229 40.4514 39.0209 40.4411 37.815C40.4308 35.9082 40.7091 34.6302 41.4924 33.0738C42.0387 31.971 42.5128 31.301 43.4198 30.3631C45.8935 27.7761 49.4597 26.6423 53.0053 27.3123ZM52.593 31.1258C54.809 31.6515 56.7157 33.4243 57.4475 35.6609C57.7052 36.4648 57.7464 36.7225 57.7361 37.7635C57.7361 38.7839 57.6949 39.0621 57.4475 39.7733C57.0662 40.8762 56.5508 41.7007 55.7366 42.5047C54.9533 43.2777 54.2112 43.7415 53.1392 44.1331C52.459 44.3805 52.2425 44.4114 50.9954 44.4114C49.7483 44.4114 49.5318 44.3805 48.8516 44.1331C47.7796 43.7415 47.0376 43.2777 46.2542 42.4943C45.4606 41.7213 44.9143 40.8349 44.5227 39.7321C44.2856 39.0518 44.2547 38.7839 44.2547 37.7119C44.2547 36.6503 44.2959 36.3617 44.5433 35.6299C45.1102 33.8984 46.3985 32.4245 48.0579 31.6309C49.5834 30.8888 50.9645 30.7445 52.593 31.1258ZM69.3417 48.9465V51.7809H50.9954H32.6491V48.9465V46.1121H50.9954H69.3417V48.9465Z" fill="#C0304F"/>
<path d="M50.4699 32.3935C50.2844 32.5481 50.2122 32.7233 50.171 33.1768C50.1195 33.754 50.1092 33.7643 49.7175 33.8983C48.7486 34.2281 48.2127 34.9496 48.1405 35.9803C48.0993 36.609 48.1199 36.743 48.3879 37.2378C48.5631 37.5676 48.8517 37.918 49.1197 38.1138C49.532 38.4024 49.6453 38.4334 50.6142 38.4849C51.1914 38.5158 51.7686 38.5983 51.8923 38.6704C52.3767 38.9384 52.2839 39.732 51.7583 39.9279C51.614 39.9897 50.841 40.0309 50.0267 40.0309C48.625 40.0309 48.5425 40.0412 48.3364 40.268C48.0581 40.5669 48.0478 41.0616 48.3055 41.3811C48.4807 41.5976 48.6147 41.6285 49.3361 41.6594L50.171 41.7007V42.216C50.171 42.8344 50.4905 43.2261 50.9956 43.2261C51.5212 43.2261 51.8201 42.8344 51.8201 42.1438C51.8201 41.6182 51.8407 41.577 52.0572 41.577C52.3767 41.577 53.1806 41.0616 53.4383 40.6906C53.9433 39.9588 54.0155 39.0415 53.6341 38.2066C53.1909 37.2584 52.3251 36.8358 50.841 36.8358C50.305 36.8358 50.1298 36.7946 49.9649 36.6297C49.6866 36.3514 49.7072 35.9494 50.0164 35.6505C50.2535 35.4031 50.305 35.3928 51.851 35.3928C53.3765 35.3928 53.4383 35.3825 53.6547 35.1558C53.9639 34.8259 53.9536 34.3209 53.6238 34.0014C53.4074 33.7746 53.2837 33.7437 52.5931 33.7437H51.8201V33.2284C51.8201 32.8058 51.7686 32.6512 51.5624 32.4554C51.2635 32.1461 50.7997 32.1152 50.4699 32.3935Z" fill="#C0304F"/>
<path d="M45.378 58.1606C42.8838 58.8821 41.3893 61.4588 41.9664 64.0665C42.2653 65.4167 42.523 65.7259 46.7592 69.962C50.3563 73.5591 50.6655 73.8374 50.9953 73.8374C51.3251 73.8374 51.6343 73.5591 55.2005 69.9929C57.3134 67.8903 59.179 65.9526 59.3439 65.7053C60.3334 64.2211 60.4261 62.0875 59.5706 60.5003C59.2099 59.8509 58.2823 58.9233 57.6226 58.5626C56.2003 57.7792 54.345 57.7689 52.8505 58.5316C52.5723 58.6759 52.0363 59.0779 51.6652 59.418L50.9953 60.0571L50.346 59.4386C49.305 58.4389 48.1197 57.9545 46.7179 57.9751C46.3263 57.9751 45.7182 58.0575 45.378 58.1606ZM47.9754 59.8303C48.4392 60.0158 48.769 60.2632 49.5833 61.0465C50.9747 62.3967 51.0159 62.3967 52.4073 61.0465C53.6545 59.8303 54.2214 59.5623 55.3757 59.6345C56.6023 59.7169 57.5917 60.3766 58.1792 61.5C58.4266 61.9638 58.4678 62.1597 58.4678 62.9121C58.4678 64.355 58.4472 64.386 54.4481 68.3747L50.9953 71.8276L47.5013 68.3232C43.5434 64.3447 43.5331 64.3241 43.5228 62.9636C43.5228 62.2834 43.5743 62.036 43.7908 61.5722C44.203 60.6961 45.0276 59.9952 45.9449 59.7066C46.4603 59.552 47.3673 59.6139 47.9754 59.8303Z" fill="#C0304F"/>
<path d="M33.7212 60.8612C33.5357 61.0673 33.5254 61.3662 33.5254 69.4571C33.5254 77.548 33.5357 77.8469 33.7212 78.0531L33.9171 78.2695H50.9956H68.0742L68.27 78.0531C68.4555 77.8469 68.4658 77.548 68.4658 69.4571C68.4658 61.3662 68.4555 61.0673 68.27 60.8612C68.002 60.5726 67.363 60.5623 67.0744 60.8509C66.8682 61.057 66.8682 61.191 66.8682 68.8902V76.7235H50.9956H35.123V68.8902C35.123 61.191 35.123 61.057 34.9168 60.8509C34.6282 60.5623 33.9892 60.5726 33.7212 60.8612Z" fill="#C0304F"/>
</svg>
